<svg width="75" height="74" viewBox="0 0 75 74" fill="none" xmlns="http://www.w3.org/2000/svg">
<path d="M43.416 73.02C37.008 73.02 31.1933 72.13 25.972 70.35C20.7803 68.57 16.3155 66.0483 12.5775 62.785C8.8395 59.5513 5.96183 55.7243 3.9445 51.304C1.95683 46.8837 0.963 42.0332 0.963 36.7525C0.963 31.5312 1.92717 26.6955 3.8555 22.2455C5.8135 17.7955 8.54283 13.924 12.0435 10.631C15.5442 7.30833 19.6678 4.72733 24.4145 2.888C29.1908 1.04866 34.3973 0.128995 40.034 0.128995C45.285 0.128995 50.0168 0.915163 54.2295 2.4875C58.4422 4.05983 62.0467 6.25516 65.043 9.0735C68.069 11.8918 70.383 15.17 71.985 18.908C73.587 22.6163 74.388 26.6065 74.388 30.8785C74.388 34.4682 73.854 37.7167 72.786 40.624C71.718 43.5017 70.2643 45.9788 68.425 48.0555C66.6153 50.1322 64.5683 51.7342 62.284 52.8615C59.9997 53.9592 57.6412 54.508 55.2085 54.508C52.7758 54.508 50.7733 53.9592 49.201 52.8615C47.6287 51.7342 46.709 50.1767 46.442 48.189L46.175 46.854C45.1663 48.9307 43.772 50.7255 41.992 52.2385C40.212 53.7515 37.8683 54.508 34.961 54.508C32.4393 54.508 30.0808 53.8702 27.8855 52.5945C25.7198 51.3188 23.9695 49.5092 22.6345 47.1655C21.2995 44.8218 20.632 42.0332 20.632 38.7995C20.632 35.9515 21.166 33.2963 22.234 30.834C23.302 28.342 24.7557 26.1615 26.595 24.2925C28.464 22.3938 30.5703 20.9253 32.914 19.887C35.2873 18.819 37.7793 18.285 40.39 18.285C43.95 18.285 46.7683 19.353 48.845 21.489C50.9217 23.625 51.96 26.8587 51.96 31.19V44.718C51.96 46.32 52.227 47.4918 52.761 48.2335C53.3247 48.9752 54.1998 49.346 55.3865 49.346C57.0775 49.346 58.8427 48.6192 60.682 47.1655C62.5213 45.7118 64.0788 43.6055 65.3545 40.8465C66.6302 38.0875 67.268 34.7648 67.268 30.8785C67.268 26.1022 66.1852 21.8747 64.0195 18.196C61.8538 14.4877 58.7537 11.5803 54.719 9.474C50.714 7.338 45.9228 6.27 40.3455 6.27C35.4802 6.27 31.0598 7.08583 27.0845 8.7175C23.1388 10.3492 19.742 12.6038 16.894 15.4815C14.0757 18.3592 11.8952 21.6967 10.3525 25.494C8.8395 29.2617 8.083 33.3112 8.083 37.6425C8.083 43.5165 9.49217 48.6933 12.3105 53.173C15.1585 57.623 19.2228 61.1088 24.5035 63.6305C29.7842 66.1522 36.0883 67.413 43.416 67.413V73.02ZM35.94 48.901C38.2837 48.901 40.2268 48.189 41.7695 46.765C43.3418 45.3113 44.7807 43.294 46.086 40.713V31.19C46.086 28.7573 45.6558 26.9032 44.7955 25.6275C43.9352 24.3518 42.4963 23.714 40.479 23.714C38.4913 23.714 36.474 24.337 34.427 25.583C32.38 26.7993 30.6593 28.5497 29.265 30.834C27.9003 33.0887 27.218 35.7587 27.218 38.844C27.218 42.1073 28.0338 44.5993 29.6655 46.32C31.3268 48.0407 33.4183 48.901 35.94 48.901Z" fill="#F5F5F5"/>
</svg>
